<svg width="20" height="18" viewBox="0 0 20 18" fill="none" xmlns="http://www.w3.org/2000/svg">
<path fill-rule="evenodd" clip-rule="evenodd" d="M10 3.35246C11.6222 0.409069 15.6423 0.0655543 17.6826 2.81477L17.9662 3.19688C19.6917 5.52197 19.4426 8.83767 17.3909 10.8526L11.0016 17.1275C10.9061 17.2213 10.8018 17.3238 10.7033 17.4031C10.5902 17.4943 10.4319 17.5997 10.2207 17.6431C10.0749 17.673 9.92506 17.673 9.77935 17.6431C9.5681 17.5997 9.40986 17.4943 9.29666 17.4031C9.19827 17.3239 9.09396 17.2214 8.9985 17.1276L2.60907 10.8526C0.557453 8.83767 0.308311 5.52197 2.03383 3.19688L2.3174 2.81477C4.35767 0.0655591 8.37778 0.409068 10 3.35246ZM13.6742 7.59101C13.9535 7.32199 13.9712 6.86728 13.7139 6.57539C13.4565 6.2835 13.0216 6.26495 12.7424 6.53397L9.20403 9.94328L7.726 8.46055C7.45203 8.18571 7.01682 8.1951 6.75393 8.48152C6.49104 8.76794 6.50002 9.22293 6.77399 9.49777L8.71853 11.4485C8.98068 11.7115 9.3933 11.7158 9.66046 11.4584L13.6742 7.59101Z" fill="url(#paint0_linear_1177_5)"/>
<defs>
<linearGradient id="paint0_linear_1177_5" x1="10" y1="0.936127" x2="10" y2="17.6655" gradientUnits="userSpaceOnUse">
<stop stop-color="#0098EE"/>
<stop offset="1" stop-color="#01E5BB"/>
</linearGradient>
</defs>
</svg>
